<svg width="215" height="149" viewBox="0 0 215 149" fill="none" xmlns="http://www.w3.org/2000/svg">
<path d="M2 121H12.7844L14.1911 29L22.6311 115.47L30.1333 100.891L34.8222 117.984V40.5628L45.6067 98.8798L47.4822 57.6557L65.3 76.2568L68.5822 95.8634V121H213" stroke="#E11D48" stroke-width="4" stroke-linecap="round" stroke-linejoin="round"/>
<path d="M86.069 28.961H101.182V110H86.069V28.961Z" fill="#E11D48"/>
<path d="M149.319 59.782C152.651 59.782 155.745 60.4167 158.601 61.686C161.537 62.9553 164.036 64.7403 166.098 67.041C168.24 69.2623 169.867 71.9597 170.977 75.133C172.167 78.227 172.762 81.6383 172.762 85.367C172.762 88.8577 172.207 92.1103 171.096 95.125C170.065 98.1397 168.558 100.758 166.574 102.979C164.591 105.121 162.251 106.827 159.553 108.096C156.856 109.365 153.841 110 150.509 110H113.619V95.006H146.225C147.812 95.006 149.319 94.8077 150.747 94.411C152.255 94.0143 153.524 93.4193 154.555 92.626C155.587 91.8327 156.42 90.841 157.054 89.651C157.689 88.461 158.006 87.033 158.006 85.367C158.006 82.273 156.975 79.8533 154.912 78.108C152.929 76.3627 150.43 75.49 147.415 75.49H137.776C133.73 75.49 130.041 75.0537 126.709 74.181C123.377 73.3083 120.561 71.92 118.26 70.016C115.96 68.112 114.175 65.6527 112.905 62.638C111.636 59.6233 111.001 56.0137 111.001 51.809C111.001 48.8737 111.517 46.0177 112.548 43.241C113.58 40.4643 115.008 38.0447 116.832 35.982C118.657 33.84 120.878 32.1343 123.496 30.865C126.114 29.5957 129.01 28.961 132.183 28.961H165.622V44.788H138.371C136.785 44.788 135.317 44.907 133.968 45.145C132.62 45.3037 131.43 45.6607 130.398 46.216C129.367 46.692 128.574 47.4457 128.018 48.477C127.463 49.5083 127.185 50.8967 127.185 52.642C127.185 54.6253 127.86 56.331 129.208 57.759C130.557 59.1077 132.382 59.782 134.682 59.782H149.319Z" fill="#2361CE"/>
<path d="M201.608 33.3457L191 29.8652V27.0615L203.797 31.8164V33.6006L201.608 33.3457ZM191 36.2373L201.608 32.748L203.797 32.4668V34.2686L191 39.0498V36.2373ZM195.764 36.0791H193.698V29.3203H195.764V36.0791ZM203.797 49.8414H191V47.2046L199.578 42.063H191V39.4263H203.797V42.063L195.21 47.2134H203.797V49.8414ZM201.608 56.6866L191 53.2062V50.4025L203.797 55.1573V56.9415L201.608 56.6866ZM191 59.5782L201.608 56.089L203.797 55.8077V57.6095L191 62.3907V59.5782ZM195.764 59.42H193.698V52.6612H195.764V59.42ZM193.057 70.9938H191V64.5514H193.057V70.9938ZM203.797 65.404H191V62.7673H203.797V65.404ZM203.797 74.4993H191V71.8713H203.797V74.4993ZM203.797 81.617H191V78.9891H203.797V81.617ZM203.797 85.5545H201.731V75.1131H203.797V85.5545ZM203.797 89.0511H191V86.4232H203.797V89.0511ZM195.245 98.1288V100.757C194.384 100.704 193.619 100.467 192.951 100.045C192.283 99.6288 191.762 99.0458 191.387 98.2958C191.012 97.5517 190.824 96.6552 190.824 95.6064C190.824 94.7861 190.965 94.0507 191.246 93.4003C191.533 92.7499 191.943 92.1933 192.477 91.7304C193.01 91.2734 193.654 90.9247 194.41 90.6845C195.166 90.4443 196.013 90.3241 196.95 90.3241H197.838C198.775 90.3241 199.622 90.4472 200.378 90.6933C201.14 90.9452 201.787 91.3027 202.32 91.7655C202.854 92.2343 203.264 92.7939 203.551 93.4443C203.838 94.0947 203.981 94.8212 203.981 95.6239C203.981 96.6904 203.788 97.5898 203.401 98.3222C203.015 99.0605 202.481 99.6318 201.802 100.036C201.122 100.446 200.349 100.692 199.481 100.774V98.1376C199.997 98.1083 200.434 98.0058 200.791 97.83C201.154 97.6542 201.427 97.3876 201.608 97.0302C201.796 96.6786 201.89 96.2099 201.89 95.6239C201.89 95.1845 201.808 94.8007 201.644 94.4726C201.479 94.1445 201.23 93.8691 200.896 93.6464C200.562 93.4238 200.141 93.2568 199.631 93.1454C199.127 93.04 198.535 92.9872 197.855 92.9872H196.95C196.288 92.9872 195.705 93.037 195.201 93.1366C194.703 93.2363 194.281 93.3886 193.936 93.5937C193.596 93.8046 193.338 94.0741 193.162 94.4023C192.992 94.7363 192.907 95.1376 192.907 95.6064C192.907 96.1572 192.995 96.6113 193.171 96.9687C193.347 97.3261 193.607 97.5986 193.953 97.7861C194.299 97.9794 194.729 98.0937 195.245 98.1288ZM201.608 106.881L191 103.401V100.597L203.797 105.352L203.797 107.136L201.608 106.881ZM191 109.773L201.608 106.284L203.797 106.002L203.797 107.804L191 112.585V109.773ZM195.764 109.615H193.698L193.698 102.856H195.764L195.764 109.615Z" fill="#E11D48"/>
</svg>
